<svg width="1213" height="537" viewBox="0 0 1213 537" fill="none" xmlns="http://www.w3.org/2000/svg">
<mask id="path-1-outside-1_124_11" maskUnits="userSpaceOnUse" x="-1" y="-1" width="1251" height="539" fill="black">
<rect fill="white" x="-1" y="-1" width="1251" height="539"/>
<path d="M0.100586 537V0.134766H162.332L259.744 366.346L356.058 0.134766H518.655V537H417.947V114.393L311.38 537H207.01L100.809 114.393V537H0.100586ZM629.251 0.134766H737.649V214.734H882.669C920.755 214.734 953.47 219.983 980.813 230.481C1008.4 240.735 1031.35 259.29 1049.66 286.146C1067.97 312.757 1077.13 343.396 1077.13 378.064C1077.13 414.441 1067.61 445.813 1048.56 472.181C1029.52 498.304 1008.28 515.638 984.842 524.183C961.648 532.728 927.591 537 882.669 537H629.251V0.134766ZM737.649 446.912H843.484C877.176 446.912 900.613 445.325 913.797 442.151C927.225 438.733 939.065 431.165 949.319 419.446C959.817 407.728 965.066 393.445 965.066 376.6C965.066 352.674 956.521 334.729 939.432 322.767C922.586 310.804 892.068 304.822 847.879 304.822H737.649V446.912ZM1139.75 0.134766H1248.15V537H1139.75V0.134766Z"/>
</mask>
<path d="M0.100586 537H-0.899414V538H0.100586V537ZM0.100586 0.134766V-0.865234H-0.899414V0.134766H0.100586ZM162.332 0.134766L163.298 -0.122295L163.101 -0.865234H162.332V0.134766ZM259.744 366.346L258.778 366.603L259.75 370.256L260.711 366.6L259.744 366.346ZM356.058 0.134766V-0.865234H355.287L355.091 -0.119585L356.058 0.134766ZM518.655 0.134766H519.655V-0.865234H518.655V0.134766ZM518.655 537V538H519.655V537H518.655ZM417.947 537H416.947V538H417.947V537ZM417.947 114.393H418.947L416.978 114.148L417.947 114.393ZM311.38 537V538H312.159L312.35 537.245L311.38 537ZM207.01 537L206.04 537.244L206.23 538H207.01V537ZM100.809 114.393L101.778 114.149L99.8086 114.393H100.809ZM100.809 537V538H101.809V537H100.809ZM1.10059 537V0.134766H-0.899414V537H1.10059ZM0.100586 1.13477H162.332V-0.865234H0.100586V1.13477ZM161.366 0.391827L258.778 366.603L260.711 366.089L163.298 -0.122295L161.366 0.391827ZM260.711 366.6L357.025 0.389116L355.091 -0.119585L258.777 366.091L260.711 366.6ZM356.058 1.13477H518.655V-0.865234H356.058V1.13477ZM517.655 0.134766V537H519.655V0.134766H517.655ZM518.655 536H417.947V538H518.655V536ZM418.947 537V114.393H416.947V537H418.947ZM416.978 114.148L310.41 536.755L312.35 537.245L418.917 114.637L416.978 114.148ZM311.38 536H207.01V538H311.38V536ZM207.98 536.756L101.778 114.149L99.8387 114.636L206.04 537.244L207.98 536.756ZM99.8086 114.393V537H101.809V114.393H99.8086ZM100.809 536H0.100586V538H100.809V536ZM629.251 0.134766V-0.865234H628.251V0.134766H629.251ZM737.649 0.134766H738.649V-0.865234H737.649V0.134766ZM737.649 214.734H736.649V215.734H737.649V214.734ZM980.813 230.481L980.455 231.415L980.465 231.419L980.813 230.481ZM1049.66 286.146L1048.83 286.709L1048.84 286.712L1049.66 286.146ZM1048.56 472.181L1049.37 472.77L1049.37 472.766L1048.56 472.181ZM984.842 524.183L984.499 523.243L984.496 523.244L984.842 524.183ZM629.251 537H628.251V538H629.251V537ZM737.649 446.912H736.649V447.912H737.649V446.912ZM913.797 442.151L914.031 443.124L914.044 443.12L913.797 442.151ZM949.319 419.446L948.574 418.779L948.567 418.788L949.319 419.446ZM939.432 322.767L938.853 323.582L938.858 323.586L939.432 322.767ZM737.649 304.822V303.822H736.649V304.822H737.649ZM1139.75 0.134766V-0.865234H1138.75V0.134766H1139.75ZM1248.15 0.134766H1249.15V-0.865234H1248.15V0.134766ZM1248.15 537V538H1249.15V537H1248.15ZM1139.75 537H1138.75V538H1139.75V537ZM629.251 1.13477H737.649V-0.865234H629.251V1.13477ZM736.649 0.134766V214.734H738.649V0.134766H736.649ZM737.649 215.734H882.669V213.734H737.649V215.734ZM882.669 215.734C920.667 215.734 953.254 220.972 980.455 231.415L981.172 229.548C953.685 218.995 920.842 213.734 882.669 213.734V215.734ZM980.465 231.419C1007.84 241.593 1030.63 260.006 1048.83 286.709L1050.49 285.582C1032.07 258.574 1008.96 239.878 981.162 229.544L980.465 231.419ZM1048.84 286.712C1067.02 313.145 1076.13 343.583 1076.13 378.064H1078.13C1078.13 343.21 1068.92 312.369 1050.48 285.579L1048.84 286.712ZM1076.13 378.064C1076.13 414.257 1066.66 445.418 1047.75 471.595L1049.37 472.766C1068.55 446.209 1078.13 414.626 1078.13 378.064H1076.13ZM1047.75 471.592C1028.79 497.601 1007.7 514.784 984.499 523.243L985.184 525.122C1008.86 516.492 1030.24 499.006 1049.37 472.77L1047.75 471.592ZM984.496 523.244C961.47 531.728 927.553 536 882.669 536V538C927.629 538 961.827 533.727 985.188 525.121L984.496 523.244ZM882.669 536H629.251V538H882.669V536ZM630.251 537V0.134766H628.251V537H630.251ZM737.649 447.912H843.484V445.912H737.649V447.912ZM843.484 447.912C877.172 447.912 900.719 446.328 914.031 443.124L913.563 441.179C900.508 444.322 877.179 445.912 843.484 445.912V447.912ZM914.044 443.12C927.691 439.646 939.702 431.956 950.072 420.105L948.567 418.788C938.429 430.374 926.758 437.82 913.55 441.182L914.044 443.12ZM950.064 420.114C960.739 408.198 966.066 393.673 966.066 376.6H964.066C964.066 393.218 958.896 407.257 948.575 418.779L950.064 420.114ZM966.066 376.6C966.066 352.403 957.405 334.127 940.005 321.947L938.858 323.586C955.638 335.332 964.066 352.945 964.066 376.6H966.066ZM940.011 321.951C922.888 309.792 892.086 303.822 847.879 303.822V305.822C892.051 305.822 922.284 311.815 938.853 323.582L940.011 321.951ZM847.879 303.822H737.649V305.822H847.879V303.822ZM736.649 304.822V446.912H738.649V304.822H736.649ZM1139.75 1.13477H1248.15V-0.865234H1139.75V1.13477ZM1247.15 0.134766V537H1249.15V0.134766H1247.15ZM1248.15 536H1139.75V538H1248.15V536ZM1140.75 537V0.134766H1138.75V537H1140.75Z" fill="#0431FE" mask="url(#path-1-outside-1_124_11)"/>
</svg>
